# xmcd
#
# Track frame offsets:
#	150
#	12085
#	31080
#	42805
#	57200
#	65517
#	75667
#	92895
#	108300
#
# Disc length: 1573 seconds
#
# Revision: 1
# Processed by: cddbd v1.5.2PL0 Copyright (c) Steve Scherf et al.
# Submitted via: audiograbber 1.83.01
#
DISCID=64062309
DTITLE=Various Artist - #1 Country Hits of the 70's
DYEAR=1900
DGENRE=Country
TTITLE0=The Statler Brothers - The Class Of 57
TTITLE1=Tom T. Hall - Old Dogs Children and Watermellon Wine
TTITLE2=Mel Tillis - Heaven Everyday
TTITLE3=Jerry Lee Lewis - Me And Bobby McGee
TTITLE4=Johnny Rodriguez - Thats The Way love Goes
TTITLE5=Cody Arnold - Shes Got Everything I Need
TTITLE6=Hank Williams Jr. - All For The Love Of Sunshine
TTITLE7=C. W. McCall - Roses For Mama
TTITLE8=The Statler Brothers - Who Am I To Say
EXTD=
EXTT0=
EXTT1=
EXTT2=
EXTT3=
EXTT4=
EXTT5=
EXTT6=
EXTT7=
EXTT8=
PLAYORDER=
